<?xml version="1.0" standalone="no"?>
<!DOCTYPE svg PUBLIC "-//W3C//DTD SVG 20010904//EN"
 "http://www.w3.org/TR/2001/REC-SVG-20010904/DTD/svg10.dtd">
<svg version="1.0" xmlns="http://www.w3.org/2000/svg"
 width="225.000000pt" height="225.000000pt" viewBox="0 0 225.000000 225.000000"
 preserveAspectRatio="xMidYMid meet">

<g transform="translate(0.000000,225.000000) scale(0.100000,-0.100000)"
fill="#000000" stroke="none">
<path d="M0 1125 l0 -1125 1125 0 1125 0 0 1125 0 1125 -1125 0 -1125 0 0
-1125z m1372 936 c295 -77 522 -265 650 -537 64 -138 81 -216 82 -389 0 -111
-4 -168 -17 -219 -98 -390 -405 -673 -799 -736 -107 -17 -300 -8 -403 20 -350
93 -622 378 -702 734 -24 107 -21 299 5 409 91 375 393 660 775 733 101 19
309 12 409 -15z"/>
<path d="M1074 1847 c-40 -48 -9 -112 53 -110 32 1 67 28 57 45 -2 4 0 9 5 12
12 8 3 42 -17 58 -25 21 -78 18 -98 -5z m74 -19 c30 -30 -4 -77 -41 -57 -20
11 -23 55 -4 62 21 9 32 8 45 -5z"/>
<path d="M1070 1637 c-25 -23 -60 -61 -78 -84 l-33 -42 -52 18 c-29 10 -71 18
-94 20 -41 2 -42 1 -52 -36 -6 -21 -14 -78 -17 -126 l-7 -87 -37 0 c-21 0 -52
-3 -69 -6 -30 -6 -32 -9 -25 -38 3 -17 19 -59 35 -93 32 -67 116 -153 169
-171 l30 -11 0 57 c1 55 24 209 33 219 3 2 24 -5 48 -17 62 -32 142 -117 175
-186 l28 -60 33 67 c36 73 105 145 173 179 23 12 44 20 46 17 7 -6 34 -199 34
-240 l0 -38 51 28 c84 45 160 151 175 241 5 35 4 40 -17 45 -13 4 -43 7 -65 7
l-42 0 -8 83 c-4 45 -8 84 -9 87 -1 3 -5 22 -10 43 l-8 39 -51 -6 c-28 -3 -72
-11 -97 -19 l-46 -14 -22 33 c-26 37 -126 134 -138 134 -4 -1 -28 -20 -53 -43z
m126 -43 c67 -69 76 -89 46 -98 -9 -3 -40 -21 -68 -39 -50 -34 -52 -34 -75
-16 -13 10 -45 28 -71 40 -27 12 -48 26 -48 29 0 12 131 150 142 150 6 0 39
-30 74 -66z m-308 -75 c26 -7 50 -15 55 -19 4 -3 -3 -26 -17 -51 -13 -24 -34
-72 -46 -107 -17 -47 -27 -61 -39 -58 -9 2 -31 7 -48 11 l-33 7 0 63 c0 35 5
87 11 115 10 46 13 50 40 50 17 0 51 -5 77 -11z m586 -21 c4 -18 10 -70 13
-115 l6 -82 -39 -6 c-21 -4 -45 -7 -52 -8 -8 -1 -23 23 -37 59 -12 33 -33 80
-45 103 -12 24 -18 47 -13 52 11 11 80 27 124 28 33 1 37 -2 43 -31z m-437
-38 c28 -16 55 -34 58 -40 4 -6 -11 -30 -33 -54 -22 -24 -52 -62 -67 -85 -15
-22 -31 -41 -36 -41 -22 0 -79 36 -79 49 0 19 64 166 80 186 16 20 17 20 77
-15z m283 -52 c58 -125 58 -129 6 -153 l-44 -21 -25 41 c-14 22 -47 62 -72 89
l-47 48 23 17 c29 20 101 60 112 61 5 0 26 -37 47 -82z m-85 -132 l34 -49 -45
-45 c-25 -25 -58 -67 -74 -95 l-28 -50 -22 43 c-12 24 -45 67 -72 96 l-50 53
30 43 c16 24 49 63 72 87 l42 43 40 -38 c22 -22 55 -61 73 -88z m-490 -33 c11
-71 36 -166 50 -194 8 -15 15 -31 15 -34 0 -13 -63 32 -95 67 -51 56 -103 167
-89 189 3 5 29 9 59 9 l54 0 6 -37z m102 23 c3 -3 0 -34 -6 -69 -6 -35 -11
-82 -11 -105 0 -22 -4 -43 -10 -47 -11 -7 -48 110 -57 183 l-6 55 42 -6 c24
-3 45 -8 48 -11z m638 -38 c-9 -65 -42 -175 -55 -183 -6 -4 -10 10 -10 33 0
36 -15 136 -26 174 -5 17 12 24 69 27 l29 1 -7 -52z m138 45 c9 -14 -25 -97
-59 -149 -36 -54 -134 -135 -120 -98 29 74 47 143 53 194 l6 60 58 0 c32 0 60
-3 62 -7z"/>
<path d="M448 790 c-28 -21 -36 -58 -22 -95 4 -9 33 -29 66 -46 49 -24 59 -34
56 -52 -2 -18 -11 -23 -41 -25 -21 -2 -45 2 -53 9 -12 10 -18 9 -32 -5 -16
-16 -16 -18 7 -37 36 -29 115 -26 146 6 28 27 33 71 12 99 -7 10 -35 30 -62
44 -52 28 -69 57 -39 69 9 3 31 1 48 -5 25 -10 33 -9 45 3 14 13 13 17 -1 31
-9 9 -36 18 -59 21 -35 4 -50 0 -71 -17z"/>
<path d="M660 665 l0 -145 25 0 c25 0 25 0 25 98 l1 97 33 -37 c18 -21 37 -38
41 -38 4 0 23 17 41 38 l33 37 1 -97 c0 -98 0 -98 25 -98 l25 0 0 145 c0 169
-3 172 -77 94 l-49 -51 -47 51 c-74 79 -77 75 -77 -94z"/>
<path d="M970 798 c0 -7 21 -72 46 -145 40 -114 50 -133 68 -133 18 0 27 18
66 132 58 170 56 158 27 158 -23 0 -28 -9 -57 -96 -18 -52 -35 -92 -38 -89 -4
3 -21 45 -38 93 -25 69 -35 88 -53 90 -12 2 -21 -2 -21 -10z"/>
<path d="M1240 666 l0 -146 25 0 26 0 -3 143 c-3 139 -4 142 -25 145 -23 3
-23 3 -23 -142z"/>
<path d="M1342 788 c2 -19 10 -24 41 -26 l37 -3 0 -120 0 -119 25 0 25 0 0
120 0 120 33 0 c40 0 46 5 40 31 -5 17 -15 19 -105 19 -97 0 -99 0 -96 -22z"/>
<path d="M1600 665 c0 -138 1 -145 20 -145 19 0 20 7 20 97 l0 97 41 -39 41
-40 34 39 34 39 0 -96 c0 -97 0 -97 25 -97 l25 0 0 145 c0 169 -3 173 -75 93
l-47 -53 -47 53 c-25 29 -52 52 -58 52 -10 0 -13 -36 -13 -145z"/>
</g>
</svg>
